<?xml version="1.0" encoding="utf-8"?><svg width="185" height="88" viewBox="0 0 185 88" xmlns="http://www.w3.org/2000/svg" xmlns:xlink="http://www.w3.org/1999/xlink"><svg id="account" data-name="All glyphs" viewBox="-1 -1 18.71 18" width="18.71" height="18" y="69.32" xmlns="http://www.w3.org/2000/svg"><defs><style>.acls-1{fill:#838383}</style></defs><title>account</title><path class="acls-1" d="M13.08 12c-2.19-.8-2.89-1.47-2.89-2.91 0-.87.67-.58 1-2.17.12-.66.71 0 .83-1.51 0-.6-.32-.75-.32-.75s.16-.89.23-1.57c.08-.85-.49-3-3.53-3S4.74 2.19 4.82 3c.06.68.23 1.57.23 1.57s-.32.15-.32.75c.11 1.5.7.85.83 1.51.29 1.59 1 1.3 1 2.17 0 1.44-.7 2.12-2.89 2.91S0 13.57 0 14.13V16h16.71v-1.87c0-.56-1.43-1.38-3.63-2.13z"/></svg><svg id="arrow-right" viewBox="-1 -1 7 12" width="7" height="12" x="83.7" y="47.32" xmlns="http://www.w3.org/2000/svg"><style>.bst0{fill:#fff}</style><title>read-more-icon</title><path class="bst0" d="M0 0v10l5-5-5-5z"/></svg><svg id="facebook" data-name="Layer 1" viewBox="-1 -1 9.55 17" width="9.55" height="17" x="74.15" y="47.32" xmlns="http://www.w3.org/2000/svg"><defs><style>.ccls-1{fill:#6b6b6b}</style></defs><title>facebook</title><path class="ccls-1" d="M0 5h1.62V3.45a3.89 3.89 0 0 1 .52-2.32A2.92 2.92 0 0 1 4.65 0a10.61 10.61 0 0 1 2.9.28l-.4 2.3a5.69 5.69 0 0 0-1.3-.19c-.63 0-1.19.22-1.19.82V5h2.57l-.18 2.2h-2.4V15h-3V7.2H0z"/></svg><svg id="logo" data-name="Layer 1" viewBox="-1 -1 184.83 47.32" width="184.83" height="47.32" xmlns="http://www.w3.org/2000/svg"><defs><style>.dcls-1{fill:#ffa687}</style></defs><title>logo</title><path d="M170.16 36.2q5.88 0 9.28-3.24t3.4-9.24q0-12.86-12.29-12.86A7.84 7.84 0 0 0 165 13v-1.68h-6v34h6V35.13a12.19 12.19 0 0 0 5.16 1.07zm-1.52-20.33q3.94 0 5.65 1.78t1.71 6.13q0 4.08-1.72 6t-5.66 1.89a5.56 5.56 0 0 1-3.62-1.29v-12.9a5 5 0 0 1 3.64-1.6zM136.54 33q3.08 3.49 8.64 3.49a11 11 0 0 0 8.57-3.49q3.13-3.46 3.13-9.32t-3.07-9.28q-3.08-3.4-8.63-3.4a11 11 0 0 0-8.5 3.53 13 13 0 0 0-3.22 9.14q0 5.81 3.08 9.33zm4.4-15.18a5 5 0 0 1 4.23-2.11q5.78 0 5.78 8a10 10 0 0 1-1.56 6 5 5 0 0 1-4.22 2.11q-5.8 0-5.8-8.11a9.68 9.68 0 0 1 1.58-5.91zM130 36.32V21.21q0-4.76-2.57-7.32a9.83 9.83 0 0 0-7.23-2.55 8.94 8.94 0 0 0-6.19 2V1.28l-6 1.37v33.67h6V18.71a5.26 5.26 0 0 1 2.04-1.71 6 6 0 0 1 2.85-.77 5.07 5.07 0 0 1 3.69 1.37 4.85 4.85 0 0 1 1.41 3.61v15.11zM91.94 36.07a15.34 15.34 0 0 0 3.9.4 10.86 10.86 0 0 0 6.84-2 6.44 6.44 0 0 0 2.52-5.37 6.9 6.9 0 0 0-1.41-4.38 10.73 10.73 0 0 0-4.62-3.08 20.15 20.15 0 0 1-4.19-2A2.14 2.14 0 0 1 94 18q0-2.38 3-2.38a7.72 7.72 0 0 1 5.19 1.6l1.64-4.44A15.43 15.43 0 0 0 96.66 11a10.14 10.14 0 0 0-6.17 1.78 5.81 5.81 0 0 0-2.41 5q0 4.74 6.31 7.38a15.3 15.3 0 0 1 3.89 2.11 2.93 2.93 0 0 1 1 2.29q0 2.38-3.32 2.38a9 9 0 0 1-5.76-2l-2 4.56a19.07 19.07 0 0 0 3.74 1.57z"/><path d="M88.57 35.32L78.1 20.42l8.69-9.1h-7.22L71 20.53V1l-6 1.38v32.94h6v-8l2.88-2.85 7.56 10.87z"/><path class="dcls-1" d="M49.46 11.29a12.27 12.27 0 0 0-9.08 4 8.78 8.78 0 0 0-9-.13 12.27 12.27 0 0 0-9-3.9A12.58 12.58 0 0 0 10 24a12.58 12.58 0 0 0 12.41 12.74A12.59 12.59 0 0 0 34.85 24a12.89 12.89 0 0 0-1.79-6.58 6.2 6.2 0 0 1 5.68.13A12.89 12.89 0 0 0 37 24a12.44 12.44 0 1 0 24.9 0 12.58 12.58 0 0 0-12.44-12.71z"/><path d="M0 31.74q0 5.7 4.08 5.7a4.92 4.92 0 0 0 4.75-2.66Q6 33.86 6 29.08V0L0 1.45z"/></svg><svg id="pinterest" viewBox="-1 -1 17.1 17" width="17.1" height="17" x="57.05" y="47.32" xmlns="http://www.w3.org/2000/svg"><style>.est0{fill:#6b6b6b}</style><title>pinterest</title><path class="est0" d="M7.5 0C3.4 0 0 3.3 0 7.5c0 3 1.8 5.7 4.5 6.9 0-.6 0-1.2.1-1.7l1-4.1c-.1-.4-.2-.8-.2-1.2 0-1.1.7-1.9 1.5-1.9.6 0 1 .4 1 1v.1c0 .7-.4 1.7-.7 2.7-.2.6.2 1.2.8 1.4h.3c1.4 0 2.4-1.8 2.4-4 0-1.6-1.1-2.9-3.2-2.9C5.7 3.7 4 5.2 3.9 7.2v.2c0 .5.2 1.1.5 1.5.1.1.2.2.1.4l-.2.6c0 .1-.2.2-.3.2h-.1c-1-.4-1.5-1.6-1.5-2.9 0-2.1 1.8-4.7 5.4-4.7 2.9 0 4.8 2.1 4.8 4.3 0 2.9-1.7 5.1-4.1 5.1-.7 0-1.4-.3-1.9-.9 0 0-.4 1.7-.5 2.1-.2.6-.4 1.1-.8 1.6.8.2 1.5.3 2.2.3 4.2 0 7.6-3.3 7.6-7.5S11.7 0 7.5 0z"/></svg><svg id="search" data-name="Layer 1" viewBox="-1 -1 18.02 18" width="18.02" height="18" x="18.71" y="69.32" xmlns="http://www.w3.org/2000/svg"><defs><style>.fcls-1{fill:#fff;fill-rule:evenodd}</style></defs><title>search</title><path class="fcls-1" d="M14.16 10.83a6.35 6.35 0 1 0-10-1.34L.49 13.15a1.66 1.66 0 0 0 0 2.34 1.66 1.66 0 0 0 2.35 0l3.66-3.66a6.37 6.37 0 0 0 7.66-1zM6.65 9.35a4.26 4.26 0 1 1 6 0 4.26 4.26 0 0 1-6 0z"/></svg><svg id="shopping-bag" data-name="Layer 1" viewBox="-1 -1 20.95 20.44" width="20.95" height="20.44" x="15.56" y="47.32" xmlns="http://www.w3.org/2000/svg"><defs><style>.gcls-1{fill:#b3b3b3}.gcls-2,.gcls-3{fill:none;stroke-miterlimit:10}.gcls-2{stroke:#fff;stroke-width:.92px}.gcls-3{stroke:#b3b3b3;stroke-width:.88px}</style></defs><title>shopping-bag</title><path class="gcls-1" d="M18.95 18.44H0L2.19 5.05h14.57l2.19 13.39z"/><path class="gcls-2" d="M11.67 8.67a2.78 2.78 0 0 0-2.21 1.1 2.79 2.79 0 1 0 0 3.38 2.79 2.79 0 1 0 2.21-4.48z"/><path class="gcls-3" d="M13 5.63V4a3.52 3.52 0 1 0-7 0v1.63"/></svg><svg id="slideshow-arrow" data-name="Layer 1" viewBox="-1 -1 15.56 22" width="15.56" height="22" y="47.32" xmlns="http://www.w3.org/2000/svg"><defs><style>.hcls-1{fill:#6b6b6b;fill-rule:evenodd}</style></defs><title>slideshow-arrow</title><path class="hcls-1" d="M13.56 9.97L3.39 0 0 3.32 6.81 10 0 16.68 3.39 20l10.17-9.97-.03-.03.03-.03z"/></svg><svg id="twitter" data-name="Layer 1" viewBox="-1 -1 20.54 17" width="20.54" height="17" x="36.51" y="47.32" xmlns="http://www.w3.org/2000/svg"><defs><style>.icls-1{fill:#6b6b6b}</style></defs><title>twitter</title><path class="icls-1" d="M18.54 1.78a7.64 7.64 0 0 1-2.18.6A3.8 3.8 0 0 0 18 .28a7.65 7.65 0 0 1-2.42.92 3.8 3.8 0 0 0-6.45 3.45 10.82 10.82 0 0 1-7.84-4 3.78 3.78 0 0 0 1.18 5.1 3.81 3.81 0 0 1-1.73-.47A3.79 3.79 0 0 0 3.8 9a3.83 3.83 0 0 1-1.72.06 3.81 3.81 0 0 0 3.55 2.63 7.65 7.65 0 0 1-4.72 1.66A7.75 7.75 0 0 1 0 13.3 10.8 10.8 0 0 0 5.83 15 10.72 10.72 0 0 0 16.65 4.23v-.49a7.71 7.71 0 0 0 1.89-1.96z"/></svg></svg>