<svg id="All_glyphs" data-name="All glyphs" xmlns="http://www.w3.org/2000/svg" viewBox="0 0 16.71 16"><defs><style>.cls-1{fill:#838383;}</style></defs><title>account</title><path class="cls-1" d="M13.08,12c-2.19-.8-2.89-1.47-2.89-2.91,0-.87.67-.58,1-2.17.12-.66.71,0,.83-1.51,0-.6-.32-.75-.32-.75s.16-.89.23-1.57c.08-.85-.49-3-3.53-3S4.74,2.19,4.82,3c.06.68.23,1.57.23,1.57s-.32.15-.32.75c.11,1.5.7.85.83,1.51.29,1.59,1,1.3,1,2.17,0,1.44-.7,2.12-2.89,2.91S0,13.57,0,14.13V16H16.71V14.13C16.71,13.57,15.28,12.75,13.08,12Z"/></svg>