<svg id="Layer_1" data-name="Layer 1" xmlns="http://www.w3.org/2000/svg" viewBox="0 0 182.83 45.32"><defs><style>.cls-1{fill:#ffa687;}</style></defs><title>logo</title><path d="M170.16,36.2q5.88,0,9.28-3.24t3.4-9.24q0-12.86-12.29-12.86A7.84,7.84,0,0,0,165,13V11.32h-6v34h6V35.13a12.19,12.19,0,0,0,5.16,1.07Zm-1.52-20.33q3.94,0,5.65,1.78T176,23.78q0,4.08-1.72,6t-5.66,1.89A5.56,5.56,0,0,1,165,30.38V17.48a5,5,0,0,1,3.64-1.6Z"/><path d="M136.54,33q3.08,3.49,8.64,3.49A11,11,0,0,0,153.75,33q3.13-3.46,3.13-9.32t-3.07-9.28Q150.73,11,145.18,11a11,11,0,0,0-8.5,3.53,13,13,0,0,0-3.22,9.14Q133.46,29.48,136.54,33Zm4.4-15.18a5,5,0,0,1,4.23-2.11q5.78,0,5.78,8a10,10,0,0,1-1.56,6,5,5,0,0,1-4.22,2.11q-5.8,0-5.8-8.11A9.68,9.68,0,0,1,140.95,17.8Z"/><path d="M130,36.32V21.21q0-4.76-2.57-7.32a9.83,9.83,0,0,0-7.23-2.55,8.94,8.94,0,0,0-6.19,2V1.28l-6,1.37V36.32h6V18.71A5.26,5.26,0,0,1,116.05,17a6,6,0,0,1,2.85-.77,5.07,5.07,0,0,1,3.69,1.37A4.85,4.85,0,0,1,124,21.21V36.32Z"/><path d="M91.94,36.07a15.34,15.34,0,0,0,3.9.4,10.86,10.86,0,0,0,6.84-2,6.44,6.44,0,0,0,2.52-5.37,6.9,6.9,0,0,0-1.41-4.38,10.73,10.73,0,0,0-4.62-3.08,20.15,20.15,0,0,1-4.19-2A2.14,2.14,0,0,1,94,18q0-2.38,3-2.38a7.72,7.72,0,0,1,5.19,1.6l1.64-4.44A15.43,15.43,0,0,0,96.66,11a10.14,10.14,0,0,0-6.17,1.78,5.81,5.81,0,0,0-2.41,5q0,4.74,6.31,7.38a15.3,15.3,0,0,1,3.89,2.11,2.93,2.93,0,0,1,1,2.29q0,2.38-3.32,2.38a9,9,0,0,1-5.76-2l-2,4.56A19.07,19.07,0,0,0,91.94,36.07Z"/><path d="M88.57,35.32,78.1,20.42l8.69-9.1H79.57L71,20.53V1L65,2.38V35.32h6v-8l2.88-2.85,7.56,10.87Z"/><path class="cls-1" d="M49.46,11.29a12.27,12.27,0,0,0-9.08,4,8.78,8.78,0,0,0-9-.13,12.27,12.27,0,0,0-9-3.9A12.58,12.58,0,0,0,10,24,12.58,12.58,0,0,0,22.41,36.74,12.59,12.59,0,0,0,34.85,24a12.89,12.89,0,0,0-1.79-6.58,6.2,6.2,0,0,1,5.68.13A12.89,12.89,0,0,0,37,24,12.44,12.44,0,1,0,61.9,24,12.58,12.58,0,0,0,49.46,11.29Z"/><path d="M0,31.74q0,5.7,4.08,5.7a4.92,4.92,0,0,0,4.75-2.66Q6,33.86,6,29.08V0L0,1.45Z"/></svg>