<?xml version="1.0" encoding="utf-8"?>
<!-- Generator: Adobe Illustrator 21.1.0, SVG Export Plug-In . SVG Version: 6.00 Build 0)  -->
<svg version="1.1" id="Layer_1" xmlns="http://www.w3.org/2000/svg" xmlns:xlink="http://www.w3.org/1999/xlink" x="0px" y="0px"
	 viewBox="0 0 15.1 15" style="enable-background:new 0 0 15.1 15;" xml:space="preserve">
<style type="text/css">
	.st0{fill:#6B6B6B;}
</style>
<title>pinterest</title>
<path class="st0" d="M7.5,0C3.4,0,0,3.3,0,7.5c0,3,1.8,5.7,4.5,6.9c0-0.6,0-1.2,0.1-1.7l1-4.1C5.5,8.2,5.4,7.8,5.4,7.4
	c0-1.1,0.7-1.9,1.5-1.9c0.6,0,1,0.4,1,1c0,0,0,0.1,0,0.1c0,0.7-0.4,1.7-0.7,2.7C7,9.9,7.4,10.5,8,10.7c0.1,0,0.2,0,0.3,0
	c1.4,0,2.4-1.8,2.4-4c0-1.6-1.1-2.9-3.2-2.9C5.7,3.7,4,5.2,3.9,7.2c0,0.1,0,0.1,0,0.2c0,0.5,0.2,1.1,0.5,1.5C4.5,9,4.6,9.1,4.5,9.3
	L4.3,9.9c0,0.1-0.2,0.2-0.3,0.2c0,0-0.1,0-0.1,0C2.9,9.7,2.4,8.5,2.4,7.2c0-2.1,1.8-4.7,5.4-4.7c2.9,0,4.8,2.1,4.8,4.3
	c0,2.9-1.7,5.1-4.1,5.1c-0.7,0-1.4-0.3-1.9-0.9c0,0-0.4,1.7-0.5,2.1c-0.2,0.6-0.4,1.1-0.8,1.6C6.1,14.9,6.8,15,7.5,15
	c4.2,0,7.6-3.3,7.6-7.5C15.1,3.3,11.7,0,7.5,0C7.5,0,7.5,0,7.5,0z"/>
</svg>
