<svg id="Layer_1" data-name="Layer 1" xmlns="http://www.w3.org/2000/svg" viewBox="0 0 18.54 15"><defs><style>.cls-1{fill:#6b6b6b;}</style></defs><title>twitter</title><path class="cls-1" d="M18.54,1.78a7.64,7.64,0,0,1-2.18.6A3.8,3.8,0,0,0,18,.28a7.65,7.65,0,0,1-2.42.92A3.8,3.8,0,0,0,9.13,4.65a10.82,10.82,0,0,1-7.84-4A3.78,3.78,0,0,0,2.47,5.75,3.81,3.81,0,0,1,.74,5.28v0A3.79,3.79,0,0,0,3.8,9a3.83,3.83,0,0,1-1.72.06,3.81,3.81,0,0,0,3.55,2.63A7.65,7.65,0,0,1,.91,13.35,7.75,7.75,0,0,1,0,13.3,10.8,10.8,0,0,0,5.83,15,10.72,10.72,0,0,0,16.65,4.23q0-.25,0-.49A7.71,7.71,0,0,0,18.54,1.78Z"/></svg>